<svg xmlns="http://www.w3.org/2000/svg" version="1.1" xmlns:xlink="http://www.w3.org/1999/xlink" xmlns:svgjs="http://svgjs.dev/svgjs" width="1500" height="1500" viewBox="0 0 1500 1500"><rect width="1500" height="1500" fill="#ffffff"></rect><g transform="matrix(0.6666666666666666,0,0,0.6666666666666666,249.39393939393932,574.5619015823218)"><svg viewBox="0 0 396 139" data-background-color="#ffffff" preserveAspectRatio="xMidYMid meet" height="526" width="1500" xmlns="http://www.w3.org/2000/svg" xmlns:xlink="http://www.w3.org/1999/xlink"><g id="tight-bounds" transform="matrix(1,0,0,1,0.24000000000003752,0.04152760472609884)"><svg viewBox="0 0 395.5199999999999 138.91694479054777" height="138.91694479054777" width="395.5199999999999"><g><svg viewBox="0 0 395.5199999999999 138.91694479054777" height="138.91694479054777" width="395.5199999999999"><g><svg viewBox="0 0 395.5199999999999 138.91694479054777" height="138.91694479054777" width="395.5199999999999"><g id="textblocktransform"><svg viewBox="0 0 395.5199999999999 138.91694479054777" height="138.91694479054777" width="395.5199999999999" id="textblock"><g><svg viewBox="0 0 395.5199999999999 97.7225760200429" height="97.7225760200429" width="395.5199999999999"><rect width="395.5199999999999" height="97.7225760200429" x="0" y="0" opacity="1" fill="#000000" data-fill-palette-color="tertiary"></rect><g transform="matrix(1,0,0,1,23.461705032,23.461705032)"><svg width="348.59658993599993" viewBox="5.65 -38 326.27000000000004 47.55" height="50.79916595604289" data-palette-color="#ffffff"><path d="M8.15-35.5L8.15-19.5 8.05-17.75 8.2-18.2 25.75-35.5 28.9-35.5 14.2-20.95 30.55 0 27.45 0 12.4-19.4 8.1-15.3 8.15 0 5.65 0 5.65-35.5 8.15-35.5ZM37.2-19.55L39.25-19.55 39.5-13.4 39.2-14.6Q40.05-17.15 42.42-18.63 44.8-20.1 47.7-20.1L47.7-20.1Q50.45-20.1 52.15-18.48 53.85-16.85 53.9-14.25L53.9-14.25 53.9 0 51.5 0 51.5-13.6Q51.45-15.5 50.3-16.75 49.15-18 46.95-18.05L46.95-18.05Q45-18.05 43.3-17.1 41.6-16.15 40.57-14.45 39.55-12.75 39.55-10.5L39.55-10.5 39.55 0 37.2 0 37.2-19.55ZM60.9-9.9L60.9-9.9Q60.9-12.75 62.27-15.1 63.65-17.45 66.02-18.82 68.4-20.2 71.34-20.2L71.34-20.2Q74.34-20.2 76.7-18.82 79.05-17.45 80.4-15.1 81.75-12.75 81.75-9.9L81.75-9.9Q81.75-7.05 80.4-4.7 79.05-2.35 76.67-0.98 74.3 0.4 71.34 0.4L71.34 0.4Q68.34 0.4 66-0.93 63.65-2.25 62.27-4.58 60.9-6.9 60.9-9.9ZM63.25-9.85L63.25-9.85Q63.25-7.55 64.32-5.68 65.4-3.8 67.22-2.7 69.05-1.6 71.3-1.6L71.3-1.6Q73.55-1.6 75.37-2.7 77.2-3.8 78.27-5.68 79.34-7.55 79.34-9.85L79.34-9.85Q79.34-12.15 78.27-14.03 77.2-15.9 75.37-17.03 73.55-18.15 71.3-18.15L71.3-18.15Q69-18.15 67.17-16.98 65.34-15.8 64.3-13.9 63.25-12 63.25-9.85ZM97.04-19.55L99.19-19.55 106.59-2.9 106.04-2.85 113.19-19.55 115.59-19.55 106.39 1.2 100.09-12.7 94.34 1.2 85.14-19.55 87.49-19.55 95.04-2.55 94.19-2.8 99.19-14.9 97.04-19.55ZM121.44 0L121.44-38 123.79-38 123.79 0 121.44 0ZM141.19 0.4L141.19 0.4Q138.14 0.4 135.79-0.95 133.44-2.3 132.11-4.63 130.79-6.95 130.79-9.85L130.79-9.85Q130.79-12.7 132.19-15.05 133.59-17.4 135.96-18.8 138.34-20.2 141.24-20.2L141.24-20.2Q144.74-20.2 147.11-18.15 149.49-16.1 150.54-12.8L150.54-12.8 133.44-6.2 132.74-7.9 148.39-14 147.89-13.3Q147.04-15.3 145.31-16.75 143.59-18.2 141.09-18.2L141.09-18.2Q138.84-18.2 137.04-17.1 135.24-16 134.16-14.15 133.09-12.3 133.09-9.95L133.09-9.95Q133.09-7.75 134.11-5.85 135.14-3.95 136.99-2.8 138.84-1.65 141.24-1.65L141.24-1.65Q142.84-1.65 144.31-2.25 145.79-2.85 146.94-3.8L146.94-3.8 148.14-2.1Q146.74-1 144.91-0.3 143.09 0.4 141.19 0.4ZM165.03 0.4L165.03 0.4Q162.28 0.4 160.03-0.93 157.78-2.25 156.46-4.6 155.14-6.95 155.14-9.9L155.14-9.9Q155.14-13.05 156.49-15.35 157.84-17.65 160.16-18.9 162.49-20.15 165.28-20.15L165.28-20.15Q168.09-20.15 170.61-18.7 173.14-17.25 174.29-14.9L174.29-14.9 173.89-13.8 173.89-38 176.24-38 176.24 0 173.84 0 173.84-6 174.34-4.9Q173.09-2.55 170.59-1.07 168.09 0.4 165.03 0.4ZM165.64-1.65L165.64-1.65Q167.89-1.65 169.69-2.63 171.49-3.6 172.59-5.28 173.69-6.95 173.84-9.05L173.84-9.05 173.84-11.55Q173.49-13.45 172.29-14.95 171.09-16.45 169.39-17.32 167.69-18.2 165.64-18.2L165.64-18.2Q163.39-18.2 161.53-17.15 159.69-16.1 158.59-14.25 157.49-12.4 157.49-9.95L157.49-9.95Q157.49-7.65 158.59-5.78 159.69-3.9 161.56-2.78 163.44-1.65 165.64-1.65ZM193.83 9.55L193.83 9.55Q192.18 9.55 190.68 9.18 189.18 8.8 187.73 7.9 186.28 7 184.73 5.55L184.73 5.55 186.13 3.95Q188.28 6 190.13 6.73 191.98 7.45 193.73 7.45L193.73 7.45Q196.78 7.45 198.58 6.48 200.38 5.5 201.18 3.88 201.98 2.25 202.03 0.25L202.03 0.25 202.08-6.1 202.63-5.5Q201.63-2.9 199.06-1.25 196.48 0.4 193.23 0.4L193.23 0.4Q190.48 0.4 188.21-0.98 185.93-2.35 184.58-4.67 183.23-7 183.23-9.85L183.23-9.85Q183.23-12.9 184.63-15.2 186.03-17.5 188.43-18.82 190.83-20.15 193.73-20.15L193.73-20.15Q196.43-20.15 198.86-18.75 201.28-17.35 202.38-15.05L202.38-15.05 202.08-13.95 202.33-19.55 204.43-19.55 204.43 0.3Q204.43 2.7 203.36 4.83 202.28 6.95 199.96 8.25 197.63 9.55 193.83 9.55ZM185.58-9.9L185.58-9.9Q185.58-7.6 186.68-5.73 187.78-3.85 189.66-2.73 191.53-1.6 193.83-1.6L193.83-1.6Q196.03-1.6 197.83-2.58 199.63-3.55 200.78-5.2 201.93-6.85 202.08-8.75L202.08-8.75 202.08-11.65Q201.68-13.55 200.51-15 199.33-16.45 197.61-17.3 195.88-18.15 193.83-18.15L193.83-18.15Q191.53-18.15 189.66-17.1 187.78-16.05 186.68-14.2 185.58-12.35 185.58-9.9ZM221.83 0.4L221.83 0.4Q218.78 0.4 216.43-0.95 214.08-2.3 212.75-4.63 211.43-6.95 211.43-9.85L211.43-9.85Q211.43-12.7 212.83-15.05 214.23-17.4 216.6-18.8 218.98-20.2 221.88-20.2L221.88-20.2Q225.38-20.2 227.75-18.15 230.13-16.1 231.18-12.8L231.18-12.8 214.08-6.2 213.38-7.9 229.03-14 228.53-13.3Q227.68-15.3 225.95-16.75 224.23-18.2 221.73-18.2L221.73-18.2Q219.48-18.2 217.68-17.1 215.88-16 214.81-14.15 213.73-12.3 213.73-9.95L213.73-9.95Q213.73-7.75 214.75-5.85 215.78-3.95 217.63-2.8 219.48-1.65 221.88-1.65L221.88-1.65Q223.48-1.65 224.95-2.25 226.43-2.85 227.58-3.8L227.58-3.8 228.78-2.1Q227.38-1 225.56-0.3 223.73 0.4 221.83 0.4ZM268.68 0.85L268.58 0.85 240.58-30.7 241.23-31.2 241.28 0 238.88 0 238.88-36.25 239.03-36.25 267.03-4.45 266.38-4.25 266.33-35.5 268.68-35.5 268.68 0.85ZM287.27 0.4L287.27 0.4Q284.22 0.4 281.88-0.95 279.52-2.3 278.2-4.63 276.88-6.95 276.88-9.85L276.88-9.85Q276.88-12.7 278.27-15.05 279.68-17.4 282.05-18.8 284.43-20.2 287.32-20.2L287.32-20.2Q290.82-20.2 293.2-18.15 295.57-16.1 296.63-12.8L296.63-12.8 279.52-6.2 278.82-7.9 294.47-14 293.97-13.3Q293.13-15.3 291.4-16.75 289.68-18.2 287.18-18.2L287.18-18.2Q284.93-18.2 283.13-17.1 281.32-16 280.25-14.15 279.18-12.3 279.18-9.95L279.18-9.95Q279.18-7.75 280.2-5.85 281.22-3.95 283.07-2.8 284.93-1.65 287.32-1.65L287.32-1.65Q288.93-1.65 290.4-2.25 291.88-2.85 293.02-3.8L293.02-3.8 294.22-2.1Q292.82-1 291-0.3 289.18 0.4 287.27 0.4ZM307.72 0.4L307.72 0.4Q306.02 0.4 304.17-0.23 302.32-0.85 301.17-2.25L301.17-2.25 302.27-3.8Q303.27-2.75 304.65-2.13 306.02-1.5 307.57-1.5L307.57-1.5Q308.72-1.5 309.75-1.83 310.77-2.15 311.42-2.95 312.07-3.75 312.07-5.1L312.07-5.1Q312.07-6.5 311.3-7.25 310.52-8 309.35-8.47 308.17-8.95 306.87-9.35L306.87-9.35Q304.72-10.05 303.35-11.25 301.97-12.45 301.97-14.65L301.97-14.65Q301.97-16.25 302.75-17.45 303.52-18.65 304.87-19.33 306.22-20 307.92-20L307.92-20Q309.47-20 311-19.5 312.52-19 313.77-17.8L313.77-17.8 312.72-16.15Q311.92-17.25 310.6-17.65 309.27-18.05 308.27-18.1L308.27-18.1Q307.42-18.1 306.5-17.75 305.57-17.4 304.95-16.73 304.32-16.05 304.32-14.95L304.32-14.95Q304.32-13.8 304.97-13.08 305.62-12.35 306.65-11.9 307.67-11.45 308.77-11.05L308.77-11.05Q310.22-10.6 311.5-9.98 312.77-9.35 313.6-8.33 314.42-7.3 314.42-5.6L314.42-5.6Q314.42-3.9 313.67-2.53 312.92-1.15 311.45-0.38 309.97 0.4 307.72 0.4ZM323.47-19.3L323.47-28.15 325.87-28.15 325.87-19.3 331.92-19.3 331.92-17.4 325.87-17.4 325.87 0 323.47 0 323.47-17.4 319.32-17.4 319.32-19.3 323.47-19.3Z" opacity="1" transform="matrix(1,0,0,1,0,0)" fill="#ffffff" class="wordmark-text-0" data-fill-palette-color="quaternary" id="text-0"></path></svg></g></svg></g><g transform="matrix(1,0,0,1,87.31962373230266,109.45342853604289)"><svg viewBox="0 0 220.8807525353946 29.46351625450487" height="29.46351625450487" width="220.8807525353946"><g transform="matrix(1,0,0,1,0,0)"><svg width="220.8807525353946" viewBox="0.17 -40.82 422.73999999999995 56.42" height="29.46351625450487" data-palette-color="#7f8cd9"><g class="slogan-text-1" data-fill-palette-color="secondary" id="text-1"><path d="M0.17-0.2L0.17-0.2 0.17-0.88Q0.17-1.07 0.37-1.07L0.37-1.07 0.9-1.07Q1.93-1.15 3-1.16 4.08-1.17 4.96-1.42L4.96-1.42Q6.96-2 6.96-4.35L6.96-4.35 6.96-30.08Q6.96-32.5 4.1-33.15L4.1-33.15Q3.3-33.33 2.47-33.45L2.47-33.45 1.95-33.45Q1.76-33.45 1.76-33.64L1.76-33.64 1.76-34.23Q1.76-34.42 1.95-34.42L1.95-34.42 25.17-34.42Q25.61-34.42 25.81-34.27 26-34.11 26.05-33.57L26.05-33.57 26.49-26.49Q26.49-26.25 26.12-26.25 25.76-26.25 25.59-26.46L25.59-26.46Q25.44-26.71 25.21-28.25 24.98-29.79 24.37-30.81 23.75-31.84 22.22-32.1L22.22-32.1 12.04-32.1Q11.72-32.1 11.72-31.79L11.72-31.79 11.72-19.17Q11.72-18.92 11.96-18.92L11.96-18.92 20.41-18.92Q23.68-18.92 23.68-22.73L23.68-22.73Q23.68-22.92 23.88-22.92L23.88-22.92 24.46-22.92Q24.66-22.92 24.66-22.73L24.66-22.73 24.66-12.28Q24.66-12.08 24.46-12.08L24.46-12.08 23.88-12.08Q23.68-12.08 23.68-12.28L23.68-12.28Q23.68-15.89 21.58-16.46L21.58-16.46Q21-16.6 20.34-16.6L20.34-16.6 11.96-16.6Q11.72-16.6 11.72-16.36L11.72-16.36 11.72-4.47Q11.72-2.64 13.4-2.39L13.4-2.39Q13.89-2.32 14.43-2.32L14.43-2.32 22.56-2.32Q25.07-2.32 26.46-4.54L26.46-4.54Q27.47-6.13 27.69-8.18L27.69-8.18Q27.76-8.86 28.42-8.86L28.42-8.86Q28.71-8.86 28.71-8.54L28.71-8.54 27.91-0.34Q27.76 0 27.56 0L27.56 0 0.37 0Q0.17 0 0.17-0.2ZM32.93-14.11L51.07-14.11 51.07-10.77 32.93-10.77 32.93-14.11ZM63.86-0.93L63.86-0.93Q65.01-0.78 65.01-0.34L65.01-0.34Q65.01-0.05 64.77 0L64.77 0 53.88 0Q53.63-0.05 53.63-0.34L53.63-0.34Q53.63-0.78 54.78-0.93L54.78-0.93Q57.42-1.32 57.42-3.71L57.42-3.71 57.42-34.16Q57.42-35.18 56.29-35.57L56.29-35.57Q55.81-35.74 55.24-35.85 54.68-35.96 54.35-36.06 54.02-36.16 53.94-36.24 53.85-36.33 53.85-36.61 53.85-36.89 54.22-37.08L54.22-37.08 60.44-40.01Q60.74-40.16 60.81-40.16L60.81-40.16Q61.23-40.16 61.23-39.58L61.23-39.58 61.23-3.71Q61.23-1.32 63.86-0.93ZM85.66-12.87L71.5-12.87Q71.09-12.87 71.09-11.08L71.09-11.08Q71.09-7.3 73.33-4.74 75.58-2.17 78.91-2.17 82.24-2.17 85.32-5.05L85.32-5.05Q85.37-5.1 85.44-5.1L85.44-5.1 85.56-5.1Q85.71-5.1 85.84-4.87 85.98-4.64 86.1-4.57L86.1-4.57Q83.27-1.12 79.44 0.2L79.44 0.2Q78.12 0.66 76.46 0.66 74.8 0.66 73.09-0.26 71.38-1.17 70.16-2.66L70.16-2.66Q67.57-5.76 67.57-10.39 67.57-15.01 70.39-18.82 73.21-22.63 78.14-22.63L78.14-22.63Q81.68-22.63 83.93-19.47 86.17-16.31 86.17-13.92L86.17-13.92Q86.17-12.87 85.66-12.87L85.66-12.87ZM71.77-15.5L71.77-15.21Q71.77-14.75 72.21-14.75L72.21-14.75 81.41-14.75Q82.05-14.75 82.05-15.5L82.05-15.5Q82.05-17.26 80.47-19.1 78.9-20.95 77.02-20.95L77.02-20.95Q75.19-20.95 73.69-19.29 72.18-17.63 71.77-15.5L71.77-15.5ZM105.36-4.03Q105.36-3.39 105.96-3.02 106.56-2.64 107.34-2.64 108.12-2.64 108.64-3.04 109.17-3.44 109.37-3.44 109.56-3.44 109.56-2.92 109.56-2.39 109.07-2.03L109.07-2.03Q105.41 0.66 104.12 0.66L104.12 0.66Q102.55 0.66 101.58-2.59L101.58-2.59Q101.5-2.83 101.45-2.81L101.45-2.81Q98.43-0.54 97.65-0.07L97.65-0.07Q95.64 1.07 93.63 0.29 91.62-0.49 90.71-2.29L90.71-2.29Q90.27-3.22 90.27-4.27L90.27-4.27Q90.27-6.35 91.81-7.57 93.35-8.79 97.67-9.91L97.67-9.91Q99.14-10.3 100.28-10.91 101.43-11.52 101.49-11.69 101.55-11.87 101.55-12.01L101.55-12.01 101.55-16.7Q101.55-19.46 99.4-20.58L99.4-20.58Q98.7-20.95 97.71-20.95 96.72-20.95 95.71-20.17 94.69-19.38 94.69-17.94L94.69-17.94 94.81-16.99Q94.67-16.7 93.06-16.02 91.45-15.33 91.2-15.28L91.2-15.28Q90.81-15.28 90.81-16.22 90.81-17.16 91.37-18.31 91.93-19.46 92.96-20.41L92.96-20.41Q95.35-22.63 98.43-22.63 101.5-22.63 103.43-20.94 105.36-19.24 105.36-16.89L105.36-16.89 105.36-4.03ZM94.11-4.74Q94.11-3.56 95.01-2.7 95.91-1.83 97.07-1.83 98.23-1.83 99.89-2.82 101.55-3.81 101.55-4.86L101.55-4.86 101.55-9.81Q101.55-10.08 101.43-10.08 101.31-10.08 101.26-10.06L101.26-10.06 95.6-7.42Q94.72-6.79 94.41-6.35 94.11-5.91 94.11-4.74ZM126.72-17.5L126.72-17.5Q126.43-17.55 125.87-17.82L125.87-17.82Q123.84-18.75 122.69-18.75 121.55-18.75 120.29-17.32 119.03-15.89 119.03-14.75L119.03-14.75 119.03-3.71Q119.03-1.88 121.15-1.27L121.15-1.27Q122.08-1.03 122.89-0.92 123.69-0.81 123.93-0.71 124.16-0.61 124.16-0.33 124.16-0.05 123.91 0L123.91 0 111.68 0Q111.44-0.05 111.44-0.34L111.44-0.34Q111.44-0.78 112.59-0.93L112.59-0.93Q115.22-1.32 115.22-3.71L115.22-3.71 115.22-16.63Q115.22-17.65 114.1-18.04L114.1-18.04Q113.61-18.21 113.05-18.32 112.49-18.43 112.16-18.53 111.83-18.63 111.74-18.71 111.66-18.8 111.66-19.08 111.66-19.36 112.02-19.56L112.02-19.56 118.25-22.49Q118.54-22.63 118.62-22.63L118.62-22.63Q119.03-22.63 119.03-22.05L119.03-22.05 119.03-18.09Q119.03-17.8 119.18-17.8L119.18-17.8Q119.37-17.8 120.18-18.95L120.18-18.95Q122.5-22.19 124.01-22.19L124.01-22.19Q124.87-22.19 126.64-21.51 128.41-20.83 128.41-20.36L128.41-20.36Q128.41-19.8 127.84-18.65 127.28-17.5 126.72-17.5ZM148.03-7.69L148.03-7.69 147.98-12.84Q147.98-15.99 147.45-17.26 146.91-18.53 146.08-19.18 145.25-19.82 143.84-19.82 142.44-19.82 137.9-17.63L137.9-17.63Q137.29-17.26 137.27-16.94L137.27-16.94 137.27-3.81Q137.27-1.34 139.9-0.98L139.9-0.98Q141.05-0.81 141.05-0.43 141.05-0.05 140.81 0L140.81 0 129.92 0Q129.67-0.05 129.67-0.34L129.67-0.34Q129.67-0.81 130.82-0.98L130.82-0.98Q133.46-1.34 133.46-3.81L133.46-3.81 133.46-17.82Q133.46-18.85 132.33-19.24L132.33-19.24Q131.85-19.41 131.28-19.52 130.72-19.63 130.39-19.73 130.06-19.82 129.98-19.91 129.89-20 129.89-20.28 129.89-20.56 130.26-20.75L130.26-20.75 136.48-23.68Q136.78-23.83 136.85-23.83L136.85-23.83Q137.27-23.83 137.27-23.24L137.27-23.24 137.27-19.43Q137.34-19.19 137.46-19.19L137.46-19.19Q137.61-19.19 138.51-19.63L138.51-19.63Q140.61-20.68 142.73-21.66 144.86-22.63 146.25-22.63L146.25-22.63Q151.89-22.63 151.89-12.35L151.89-12.35 151.67-5.22 151.67-3.81Q151.67-1.9 153.57-1.32L153.57-1.32Q154.38-1.05 155.12-0.94 155.87-0.83 156.1-0.73 156.33-0.63 156.33-0.34 156.33-0.05 156.09 0L156.09 0 144.32 0Q144.08-0.05 144.08-0.34L144.08-0.34Q144.08-0.81 145.22-0.98L145.22-0.98Q147.84-1.34 147.84-4L147.84-4Q148.03-5.22 148.03-7.69ZM169.42 0L158.53 0Q158.28-0.05 158.28-0.34L158.28-0.34Q158.28-0.78 159.43-0.93L159.43-0.93Q162.07-1.32 162.07-3.71L162.07-3.71 162.07-16.63Q162.07-17.65 160.94-18.04L160.94-18.04Q160.46-18.21 159.89-18.32 159.33-18.43 159-18.53 158.67-18.63 158.59-18.71 158.5-18.8 158.5-19.08 158.5-19.36 158.87-19.56L158.87-19.56 165.09-22.49Q165.39-22.63 165.46-22.63L165.46-22.63Q165.88-22.63 165.88-22.05L165.88-22.05 165.88-3.71Q165.88-1.32 168.51-0.93L168.51-0.93Q169.66-0.78 169.66-0.42 169.66-0.05 169.42 0L169.42 0ZM163.62-29.49Q162.6-29.49 161.84-30.13 161.07-30.76 161.07-31.9 161.07-33.03 161.8-33.69 162.53-34.35 163.54-34.35 164.56-34.35 165.25-33.57 165.95-32.79 165.95-31.88 165.95-30.98 165.29-30.24 164.63-29.49 163.62-29.49ZM190.51-7.69L190.51-7.69 190.46-12.84Q190.46-15.99 189.92-17.26 189.38-18.53 188.55-19.18 187.72-19.82 186.32-19.82 184.92-19.82 180.38-17.63L180.38-17.63Q179.77-17.26 179.74-16.94L179.74-16.94 179.74-3.81Q179.74-1.34 182.38-0.98L182.38-0.98Q183.52-0.81 183.52-0.43 183.52-0.05 183.28 0L183.28 0 172.39 0Q172.15-0.05 172.15-0.34L172.15-0.34Q172.15-0.81 173.3-0.98L173.3-0.98Q175.93-1.34 175.93-3.81L175.93-3.81 175.93-17.82Q175.93-18.85 174.81-19.24L174.81-19.24Q174.32-19.41 173.76-19.52 173.2-19.63 172.87-19.73 172.54-19.82 172.45-19.91 172.37-20 172.37-20.28 172.37-20.56 172.73-20.75L172.73-20.75 178.96-23.68Q179.25-23.83 179.33-23.83L179.33-23.83Q179.74-23.83 179.74-23.24L179.74-23.24 179.74-19.43Q179.81-19.19 179.94-19.19L179.94-19.19Q180.08-19.19 180.99-19.63L180.99-19.63Q183.09-20.68 185.21-21.66 187.33-22.63 188.73-22.63L188.73-22.63Q194.36-22.63 194.36-12.35L194.36-12.35 194.15-5.22 194.15-3.81Q194.15-1.9 196.05-1.32L196.05-1.32Q196.86-1.05 197.6-0.94 198.34-0.83 198.58-0.73 198.81-0.63 198.81-0.34 198.81-0.05 198.56 0L198.56 0 186.8 0Q186.55-0.05 186.55-0.34L186.55-0.34Q186.55-0.81 187.7-0.98L187.7-0.98Q190.31-1.34 190.31-4L190.31-4Q190.51-5.22 190.51-7.69ZM219.29-20.29L219.29-20.29Q219.29-20.29 225.83-20.58L225.83-20.58Q226.39-20.58 226.56-20.46 226.74-20.34 226.93-19.62 227.13-18.9 227.13-18.26 227.13-17.63 227-17.53 226.88-17.43 226.52-17.43L226.52-17.43 221.1-17.43Q221.24-17.16 221.41-16.87 221.58-16.58 221.85-15.89 222.12-15.21 222.12-13.78 222.12-12.35 221.43-10.8 220.73-9.25 219.39-8.06L219.39-8.06Q216.41-5.37 211.67-5.37L211.67-5.37Q210.43-5.37 208.94-5.83L208.94-5.83Q208.57-5.44 207.96-5.11 207.35-4.79 206.76-4.44L206.76-4.44Q205.3-3.61 205.3-2.78L205.3-2.78Q205.3-0.71 212.18-0.66 219.07-0.61 221.23-0.21 223.39 0.2 224.59 1.39L224.59 1.39Q226.47 3.27 226.47 5.69L226.47 5.69Q226.47 7.76 224.68 9.96L224.68 9.96Q221.58 13.84 215.21 15.14L215.21 15.14Q212.94 15.6 210.4 15.6L210.4 15.6Q205.79 15.6 203.4 13.93 201 12.26 201 9.89L201 9.89Q201 8.59 201.61 7.75 202.22 6.91 203.16 6.16 204.1 5.42 205.23 4.6 206.35 3.78 207.37 2.51L207.37 2.51Q205.03 2.32 203.36 1.03 201.69-0.27 201.69-1.51 201.69-2.76 202.35-3.36 203-3.96 203.96-4.38 204.91-4.81 205.96-5.18 207.01-5.54 207.79-6.13L207.79-6.13Q205.06-7.2 203.57-9.09 202.08-10.99 202.08-13.23L202.08-13.23Q202.08-17.41 205.12-20.04 208.16-22.68 212.45-22.68 216.75-22.68 219.29-20.29ZM206.02 5.18Q205.45 5.74 205.08 6.37 204.71 7.01 204.71 7.97 204.71 8.94 205.41 10 206.11 11.06 207.3 11.91L207.3 11.91Q209.94 13.87 213.65 13.87 217.36 13.87 220.38 11.71 223.39 9.55 223.39 6.97 223.39 4.39 220.9 3.52L220.9 3.52Q219.73 3.13 214.87 3.03 210.01 2.93 208.57 2.76L208.57 2.76Q207.94 3.49 207.27 4.05 206.59 4.61 206.02 5.18ZM218.12-13.79Q218.12-17.24 216.4-19.4 214.67-21.56 211.84-21.56L211.84-21.56Q208.18-21.56 206.67-18.12L206.67-18.12Q206.08-16.8 206.08-15.09L206.08-15.09Q206.08-11.6 207.52-9.28L207.52-9.28Q209.28-6.49 212.14-6.49 214.99-6.49 216.55-8.42 218.12-10.35 218.12-13.79Z" fill="#000000" data-fill-palette-color="primary"></path><path d="M257.6 0L243 0Q242.8 0 242.8-0.49L242.8-0.49 242.8-0.78Q242.8-0.98 243.05-0.98 243.29-0.98 243.77-1.12 244.24-1.27 244.49-1.32L244.49-1.32Q246.98-1.88 246.98-4.15L246.98-4.15 246.98-29.93Q246.98-32.18 246.15-32.8 245.32-33.42 243.14-33.42L243.14-33.42 242.04-33.42Q241.53-33.42 241.53-34.01L241.53-34.01Q241.53-34.35 241.85-34.42L241.85-34.42 242.02-34.42 255.72-34.79 258.18-34.79Q262.55-34.5 265.46-31.64 268.36-28.78 268.36-24.79 268.36-20.8 265.51-17.55L265.51-17.55Q264.26-16.11 262.7-15.22 261.14-14.33 259.62-14.31L259.62-14.31 252.3-14.6 252.1-14.6Q251.74-14.6 251.74-14.26L251.74-14.26 251.74-4.22Q251.74-2.88 252.47-2.25 253.2-1.61 255.57-1.25L255.57-1.25Q255.89-1.2 256.6-1.09 257.3-0.98 257.55-0.98 257.79-0.98 257.79-0.78L257.79-0.78 257.79-0.2Q257.79 0 257.6 0L257.6 0ZM253.71-33.56Q253.42-33.54 253.09-33.53 252.76-33.52 252.25-33.51 251.74-33.5 251.74-33.11L251.74-33.11 251.74-17.36 251.79-16.63Q251.86-16.11 252.25-16.09L252.25-16.09 254.74-15.94Q258.67-15.94 261.08-18.58 263.48-21.22 263.48-25.21 263.48-29.2 261.15-31.4 258.82-33.59 254.94-33.59L254.94-33.59Q254.59-33.59 254.3-33.58 254.01-33.57 253.71-33.56ZM280.84-0.93L280.84-0.93Q281.98-0.78 281.98-0.34L281.98-0.34Q281.98-0.05 281.74 0L281.74 0 270.85 0Q270.61-0.05 270.61-0.34L270.61-0.34Q270.61-0.78 271.75-0.93L271.75-0.93Q274.39-1.32 274.39-3.71L274.39-3.71 274.39-34.16Q274.39-35.18 273.27-35.57L273.27-35.57Q272.78-35.74 272.22-35.85 271.66-35.96 271.33-36.06 271-36.16 270.91-36.24 270.83-36.33 270.83-36.61 270.83-36.89 271.19-37.08L271.19-37.08 277.42-40.01Q277.71-40.16 277.78-40.16L277.78-40.16Q278.2-40.16 278.2-39.58L278.2-39.58 278.2-3.71Q278.2-1.32 280.84-0.93ZM299.63-4.03Q299.63-3.39 300.23-3.02 300.83-2.64 301.61-2.64 302.39-2.64 302.92-3.04 303.44-3.44 303.64-3.44 303.83-3.44 303.83-2.92 303.83-2.39 303.34-2.03L303.34-2.03Q299.68 0.66 298.39 0.66L298.39 0.66Q296.82 0.66 295.85-2.59L295.85-2.59Q295.77-2.83 295.73-2.81L295.73-2.81Q292.7-0.54 291.92-0.07L291.92-0.07Q289.92 1.07 287.9 0.29 285.89-0.49 284.98-2.29L284.98-2.29Q284.54-3.22 284.54-4.27L284.54-4.27Q284.54-6.35 286.08-7.57 287.62-8.79 291.94-9.91L291.94-9.91Q293.41-10.3 294.55-10.91 295.7-11.52 295.76-11.69 295.82-11.87 295.82-12.01L295.82-12.01 295.82-16.7Q295.82-19.46 293.68-20.58L293.68-20.58Q292.97-20.95 291.98-20.95 290.99-20.95 289.98-20.17 288.96-19.38 288.96-17.94L288.96-17.94 289.09-16.99Q288.94-16.7 287.33-16.02 285.72-15.33 285.47-15.28L285.47-15.28Q285.08-15.28 285.08-16.22 285.08-17.16 285.64-18.31 286.2-19.46 287.23-20.41L287.23-20.41Q289.62-22.63 292.7-22.63 295.77-22.63 297.7-20.94 299.63-19.24 299.63-16.89L299.63-16.89 299.63-4.03ZM288.38-4.74Q288.38-3.56 289.28-2.7 290.18-1.83 291.34-1.83 292.5-1.83 294.16-2.82 295.82-3.81 295.82-4.86L295.82-4.86 295.82-9.81Q295.82-10.08 295.7-10.08 295.58-10.08 295.53-10.06L295.53-10.06 289.87-7.42Q288.99-6.79 288.68-6.35 288.38-5.91 288.38-4.74ZM319.43-18.77L312.08-18.77Q311.93-18.77 311.93-18.55L311.93-18.55 311.93-5.08Q311.93-3.61 312.58-2.78 313.23-1.95 314.23-1.95 315.23-1.95 315.97-2.28 316.72-2.61 317.27-3 317.82-3.39 318.26-3.72 318.7-4.05 319.04-4.05 319.38-4.05 319.38-3.88L319.38-3.88Q319.38-3.3 319.26-3.13L319.26-3.13Q316.33 0.66 313.61 0.66 310.88 0.66 309.51-1.06 308.13-2.78 308.13-5.18L308.13-5.18 308.13-18.77 306.29-18.77Q305.61-18.77 305.57-19.21 305.54-19.65 305.71-19.78L305.71-19.78Q307-20.61 309.27-22.75L309.27-22.75Q309.52-23.02 309.93-23.56 310.35-24.1 311.14-25.02 311.93-25.95 312.35-25.95 312.76-25.95 312.76-25.61L312.76-25.61Q312.76-25.56 311.93-22.41L311.93-22.41Q311.93-21.97 312.33-21.95L312.33-21.95 318.55-21.95Q319.62-21.95 319.62-18.92L319.62-18.92Q319.62-18.77 319.43-18.77L319.43-18.77ZM335.3-0.39L335.3-0.39Q335.3 0 334.86 0L334.86 0 321.45 0Q321.21-0.05 321.21-0.34L321.21-0.34Q321.21-0.78 322.36-0.93L322.36-0.93Q324.99-1.32 324.99-3.71L324.99-3.71 324.99-18.51Q324.99-18.77 324.7-18.77L324.7-18.77 322.04-18.77Q321.75-18.77 321.48-18.96 321.21-19.14 321.21-19.45 321.21-19.75 321.5-19.92L321.5-19.92Q321.92-20.17 323.46-20.58 324.99-21 324.99-21.95L324.99-21.95 324.99-22.75Q324.99-31.54 328.8-36.28L328.8-36.28Q330.93-38.94 335.27-40.38L335.27-40.38Q336.59-40.82 337.88-40.82 339.18-40.82 340.91-40.15 342.64-39.48 342.64-38.53L342.64-38.53Q342.64-38.33 342.58-38.18 342.52-38.04 342.45-37.82L342.45-37.82 341.45-35.67Q341.25-35.28 340.98-35.28L340.98-35.28Q340.91-35.28 339.93-36.05 338.96-36.82 337.87-37.46 336.79-38.11 335.32-38.11L335.32-38.11Q332.46-38.11 331-36.65 329.53-35.18 329.17-33.34 328.8-31.49 328.8-29.27L328.8-29.27 328.8-22.17Q328.8-21.97 329.05-21.97L329.05-21.97 333.81-21.97Q334.49-21.97 334.7-21.84 334.91-21.7 335.1-20.96 335.3-20.21 335.3-19.59 335.3-18.97 335.17-18.87 335.05-18.77 334.66-18.77L334.66-18.77 329.12-18.77Q328.8-18.77 328.8-18.53L328.8-18.53 328.8-4.2Q328.8-0.71 334.86-0.71L334.86-0.71Q335.3-0.66 335.3-0.39ZM337.3-10.97Q337.3-15.77 340.7-19.23 344.11-22.68 348.87-22.68 353.63-22.68 357.14-19.32 360.66-15.97 360.66-11.04 360.66-6.1 357.33-2.72 353.99 0.66 348.97 0.66 343.94 0.66 340.62-2.76 337.3-6.18 337.3-10.97ZM343.37-4.69L343.37-4.69Q345.77-0.66 349.89-0.66L349.89-0.66Q353.09-0.66 354.79-3.22 356.49-5.79 356.49-9.52 356.49-13.26 354.1-17.19 351.72-21.12 347.7-21.12L347.7-21.12Q344.74-21.12 343.05-18.57 341.35-16.02 341.35-12.1 341.35-8.18 343.37-4.69ZM379.04-17.5L379.04-17.5Q378.75-17.55 378.19-17.82L378.19-17.82Q376.16-18.75 375.01-18.75 373.87-18.75 372.61-17.32 371.35-15.89 371.35-14.75L371.35-14.75 371.35-3.71Q371.35-1.88 373.47-1.27L373.47-1.27Q374.4-1.03 375.21-0.92 376.01-0.81 376.25-0.71 376.48-0.61 376.48-0.33 376.48-0.05 376.23 0L376.23 0 364 0Q363.76-0.05 363.76-0.34L363.76-0.34Q363.76-0.78 364.91-0.93L364.91-0.93Q367.54-1.32 367.54-3.71L367.54-3.71 367.54-16.63Q367.54-17.65 366.42-18.04L366.42-18.04Q365.93-18.21 365.37-18.32 364.81-18.43 364.48-18.53 364.15-18.63 364.06-18.71 363.98-18.8 363.98-19.08 363.98-19.36 364.34-19.56L364.34-19.56 370.57-22.49Q370.86-22.63 370.94-22.63L370.94-22.63Q371.35-22.63 371.35-22.05L371.35-22.05 371.35-18.09Q371.35-17.8 371.5-17.8L371.5-17.8Q371.69-17.8 372.5-18.95L372.5-18.95Q374.82-22.19 376.33-22.19L376.33-22.19Q377.19-22.19 378.96-21.51 380.73-20.83 380.73-20.36L380.73-20.36Q380.73-19.8 380.16-18.65 379.6-17.5 379.04-17.5ZM414.61-7.69L414.61-7.69 414.56-12.84Q414.56-15.99 414.02-17.26 413.49-18.53 412.66-19.18 411.83-19.82 410.42-19.82 409.02-19.82 404.48-17.63L404.48-17.63Q403.87-17.26 403.84-16.94L403.84-16.94 403.84-3.81Q403.84-1.34 406.48-0.98L406.48-0.98Q407.63-0.81 407.63-0.43 407.63-0.05 407.38 0L407.38 0 396.49 0Q396.25-0.05 396.25-0.34L396.25-0.34Q396.25-0.81 397.4-0.98L397.4-0.98Q400.03-1.34 400.03-3.81L400.03-3.81 400.03-15.97Q400.03-19.8 395.3-19.8L395.3-19.8Q393.57-19.8 390.49-17.75L390.49-17.75Q389.71-17.24 389.34-16.8L389.34-16.8 389.34-3.81Q389.34-1.34 391.98-0.98L391.98-0.98Q393.13-0.81 393.13-0.43 393.13-0.05 392.88 0L392.88 0 381.99 0Q381.75-0.05 381.75-0.34L381.75-0.34Q381.75-0.81 382.9-0.98L382.9-0.98Q385.53-1.34 385.53-3.76L385.53-3.76 385.53-17.82Q385.53-18.85 384.41-19.24L384.41-19.24Q383.92-19.41 383.36-19.52 382.8-19.63 382.47-19.73 382.14-19.82 382.05-19.91 381.97-20 381.97-20.28 381.97-20.56 382.33-20.75L382.33-20.75 388.56-23.68Q388.85-23.83 388.93-23.83L388.93-23.83Q389.34-23.83 389.34-23.24L389.34-23.24 389.34-19.19Q389.37-19.04 389.52-19.04 389.68-19.04 390.33-19.38 390.98-19.73 392.03-20.35 393.08-20.97 394.8-21.8 396.52-22.63 398.45-22.63L398.45-22.63Q401.55-22.63 402.89-19.97L402.89-19.97Q403.4-18.9 403.82-19.06 404.23-19.21 405.11-19.65L405.11-19.65Q407.19-20.68 409.31-21.66 411.44-22.63 412.83-22.63L412.83-22.63Q418.47-22.63 418.47-12.35L418.47-12.35 418.25-5.22 418.25-3.81Q418.25-1.9 420.15-1.32L420.15-1.32Q420.96-1.05 421.7-0.94 422.45-0.83 422.68-0.73 422.91-0.63 422.91-0.34 422.91-0.05 422.67 0L422.67 0 410.9 0Q410.65-0.05 410.65-0.34L410.65-0.34Q410.65-0.81 411.8-0.98L411.8-0.98Q414.41-1.34 414.41-4L414.41-4Q414.61-5.22 414.61-7.69Z" fill="#000000" data-fill-palette-color="accent"></path></g></svg></g></svg></g></svg></g></svg></g></svg></g><defs></defs></svg><rect width="395.5199999999999" height="138.91694479054777" fill="none" stroke="none" visibility="hidden"></rect></g></svg></g></svg>